<svg width="24" height="24" fill="none" xmlns="http://www.w3.org/2000/svg"><g clip-path="url(#clip0_1_2765)"><path d="M20 6L14 .74a3 3 0 00-4 0L4 6a3 3 0 00-1 2.26V17a3 3 0 003 3h12a3 3 0 003-3V8.25A3 3 0 0020 6zm-6 12h-4v-5a1 1 0 011-1h2a1 1 0 011 1v5zm5-1a1 1 0 01-1 1h-2v-5a3 3 0 00-3-3h-2a3 3 0 00-3 3v5H6a1 1 0 01-1-1V8.25a1 1 0 01.34-.75l6-5.25a1 1 0 011.32 0l6 5.25a1 1 0 01.34.75V17z" fill="#7421B0"/></g><defs><clipPath id="clip0_1_2765"><path fill="#fff" d="M0 0h24v24H0z"/></clipPath></defs></svg>